<svg xmlns="http://www.w3.org/2000/svg" width="900" height="560" viewBox="0 0 900 560">
  <!-- Cloud Safety hero — soft pastel storybook scene. Transparent ground;
       a rounded "cloud" castle guarded by a friendly lock, with three mascot
       perches (bear / fox / owl spots). Pastel wash tokens, no #fff fill. -->
  <defs>
    <linearGradient id="sky" x1="0" y1="0" x2="0" y2="1">
      <stop offset="0" stop-color="#DDEAF6"/>
      <stop offset="1" stop-color="#E7E1F1"/>
    </linearGradient>
    <linearGradient id="cloud" x1="0" y1="0" x2="0" y2="1">
      <stop offset="0" stop-color="#F8FAFE"/>
      <stop offset="1" stop-color="#DCEFE0"/>
    </linearGradient>
    <linearGradient id="lock" x1="0" y1="0" x2="0" y2="1">
      <stop offset="0" stop-color="#F6E7B8"/>
      <stop offset="1" stop-color="#F3D98A"/>
    </linearGradient>
  </defs>

  <!-- soft rounded sky panel (not a full-bleed white ground) -->
  <rect x="20" y="20" width="860" height="520" rx="48" fill="url(#sky)"/>

  <!-- drifting pastel clouds -->
  <g opacity="0.9">
    <circle cx="150" cy="130" r="34" fill="#FBE8DA"/>
    <circle cx="190" cy="120" r="44" fill="#FBE8DA"/>
    <circle cx="232" cy="132" r="32" fill="#FBE8DA"/>
    <rect x="150" y="128" width="84" height="34" rx="17" fill="#FBE8DA"/>
  </g>
  <g opacity="0.85">
    <circle cx="690" cy="110" r="30" fill="#F8E0E4"/>
    <circle cx="726" cy="100" r="40" fill="#F8E0E4"/>
    <circle cx="764" cy="112" r="28" fill="#F8E0E4"/>
    <rect x="690" y="108" width="78" height="30" rx="15" fill="#F8E0E4"/>
  </g>

  <!-- the cloud "village" base -->
  <g>
    <circle cx="330" cy="380" r="74" fill="url(#cloud)"/>
    <circle cx="430" cy="362" r="92" fill="url(#cloud)"/>
    <circle cx="540" cy="378" r="80" fill="url(#cloud)"/>
    <circle cx="612" cy="402" r="58" fill="url(#cloud)"/>
    <rect x="296" y="372" width="350" height="120" rx="60" fill="url(#cloud)"/>
  </g>

  <!-- little house cards perched on the cloud -->
  <g>
    <rect x="372" y="300" width="70" height="60" rx="14" fill="#CFE4F2"/>
    <path d="M 366 302 L 407 270 L 448 302 Z" fill="#2E5C7E" opacity="0.85"/>
    <rect x="396" y="328" width="22" height="32" rx="6" fill="#E7E1F1"/>
  </g>
  <g>
    <rect x="470" y="288" width="76" height="68" rx="14" fill="#D4ECD6"/>
    <path d="M 463 290 L 508 256 L 553 290 Z" fill="#3E7A4E" opacity="0.85"/>
    <rect x="496" y="320" width="24" height="36" rx="6" fill="#FBF6E3"/>
  </g>

  <!-- central guardian lock (the "safety" mascot prop) -->
  <g transform="translate(412,398)">
    <path d="M 18 0 a 30 30 0 0 1 60 0 v 26 h -16 v -26 a 14 14 0 0 0 -28 0 v 26 h -16 z"
          fill="none" stroke="#C8623F" stroke-width="11" stroke-linecap="round"/>
    <rect x="6" y="24" width="84" height="74" rx="20" fill="url(#lock)" stroke="#C8623F" stroke-width="4"/>
    <circle cx="48" cy="58" r="11" fill="#C8623F"/>
    <rect x="43" y="62" width="10" height="22" rx="5" fill="#C8623F"/>
    <!-- happy face -->
    <circle cx="30" cy="50" r="3" fill="#3D3A37"/>
    <circle cx="66" cy="50" r="3" fill="#3D3A37"/>
  </g>

  <!-- three pastel perches for the bear / fox / owl mascots -->
  <g>
    <circle cx="300" cy="338" r="26" fill="#F6D9DE"/>
    <circle cx="450" cy="476" r="26" fill="#CFE4F2"/>
    <circle cx="596" cy="346" r="26" fill="#E2D9F0"/>
  </g>

  <!-- a few sparkles -->
  <g fill="#F3D98A">
    <path d="M 250 220 l 5 12 l 12 5 l -12 5 l -5 12 l -5 -12 l -12 -5 l 12 -5 z"/>
    <path d="M 660 250 l 4 9 l 9 4 l -9 4 l -4 9 l -4 -9 l -9 -4 l 9 -4 z"/>
  </g>
</svg>
