<svg xmlns="http://www.w3.org/2000/svg" width="120" height="120" viewBox="0 0 120 120" fill="none">
  <circle cx="60" cy="60" r="58" fill="#faf4e6" stroke="#071e49" stroke-width="3"/>
  <clipPath id="cCto"><circle cx="60" cy="60" r="56"/></clipPath>
  <g clip-path="url(#cCto)">
    <rect x="0" y="84" width="120" height="40" fill="#071e49"/>
    <path d="M40 122 q20 -30 40 0 z" fill="#a48751"/>
    <circle cx="60" cy="50" r="24" fill="#f4ead2" stroke="#a48751" stroke-width="2"/>
    <path d="M37 44 q3 -26 23 -26 q20 0 23 26 q-5 -10 -23 -10 q-18 0 -23 10 z" fill="#6b5630"/>
    <rect x="44" y="45" width="14" height="10" rx="3" fill="none" stroke="#071e49" stroke-width="2"/>
    <rect x="62" y="45" width="14" height="10" rx="3" fill="none" stroke="#071e49" stroke-width="2"/>
    <line x1="58" y1="49" x2="62" y2="49" stroke="#071e49" stroke-width="2"/>
    <path d="M53 62 q7 5 14 0" stroke="#a48751" stroke-width="2.4" fill="none" stroke-linecap="round"/>
    <path d="M48 84 l12 12 l12 -12" fill="#d1b06c"/>
  </g>
</svg>
