<svg xmlns="http://www.w3.org/2000/svg" width="120" height="120" viewBox="0 0 120 120" fill="none">
  <circle cx="60" cy="60" r="58" fill="#f4fbeb" stroke="#071e49" stroke-width="3"/>
  <clipPath id="cCpo"><circle cx="60" cy="60" r="56"/></clipPath>
  <g clip-path="url(#cCpo)">
    <rect x="0" y="84" width="120" height="40" fill="#071e49"/>
    <path d="M40 122 q20 -30 40 0 z" fill="#5a9438"/>
    <circle cx="60" cy="50" r="24" fill="#f7e3cf" stroke="#a48751" stroke-width="2"/>
    <path d="M33 56 q-2 -40 27 -40 q29 0 27 40 q-8 -6 -8 -18 q-19 10 -38 0 q0 12 -8 18 z" fill="#1d1a16"/>
    <circle cx="51" cy="49" r="2.6" fill="#071e49"/>
    <circle cx="69" cy="49" r="2.6" fill="#071e49"/>
    <path d="M53 60 q7 6 14 0" stroke="#a48751" stroke-width="2.4" fill="none" stroke-linecap="round"/>
    <path d="M48 84 l12 12 l12 -12" fill="#92d05d"/>
  </g>
</svg>
